<!DOCTYPE svg PUBLIC "-//W3C//DTD SVG 20010904//EN" "http://www.w3.org/TR/2001/REC-SVG-20010904/DTD/svg10.dtd">
<svg version="1.0" xmlns="http://www.w3.org/2000/svg" width="351px" height="216px" viewBox="0 0 3510 2160" preserveAspectRatio="xMidYMid meet">
<g id="layer1" fill="#3f6170" stroke="none">
 <path d="M620 1925 c0 -8 5 -15 10 -15 6 0 10 7 10 15 0 8 -4 15 -10 15 -5 0 -10 -7 -10 -15z"/>
 <path d="M730 1780 c0 -38 4 -50 15 -50 11 0 15 12 15 50 0 38 -4 50 -15 50 -11 0 -15 -12 -15 -50z"/>
 <path d="M794 1659 c-10 -17 13 -36 27 -22 12 12 4 33 -11 33 -5 0 -12 -5 -16 -11z"/>
 <path d="M905 1610 c-3 -5 -3 -14 0 -20 4 -6 -17 -10 -54 -10 -37 0 -61 4 -61 11 0 6 -10 9 -22 7 -19 -2 -23 -9 -23 -38 l0 -35 116 -3 117 -3 8 -57 c7 -42 14 -58 27 -60 14 -3 17 4 17 42 0 34 4 46 15 46 8 0 15 2 15 4 0 2 3 11 6 20 4 11 1 16 -10 16 -9 0 -17 -6 -17 -12 -1 -7 -4 3 -8 22 -4 26 -12 36 -28 38 -13 2 -23 9 -23 17 0 23 -62 35 -75 15z"/>
 <path d="M132 1563 c-11 -21 -32 -115 -32 -143 0 -33 48 -26 62 8 6 15 16 41 23 57 7 17 16 45 20 63 6 31 6 32 -29 32 -23 0 -38 -6 -44 -17z"/>
 <path d="M1272 1378 c3 -7 13 -15 22 -16 12 -3 17 1 14 10 -3 7 -13 15 -22 16 -12 3 -17 -1 -14 -10z"/>
 </g>
<g id="layer2" fill="#597987" stroke="none">
 <path d="M1160 2075 c0 -8 5 -15 10 -15 6 0 10 7 10 15 0 8 -4 15 -10 15 -5 0 -10 -7 -10 -15z"/>
 <path d="M890 2035 c0 -8 5 -15 10 -15 6 0 10 7 10 15 0 8 -4 15 -10 15 -5 0 -10 -7 -10 -15z"/>
 <path d="M315 1769 c-4 -6 -5 -13 -2 -16 7 -7 27 6 27 18 0 12 -17 12 -25 -2z"/>
 <path d="M1020 1720 c0 -20 5 -30 15 -30 10 0 15 10 15 30 0 20 -5 30 -15 30 -10 0 -15 -10 -15 -30z"/>
 <path d="M797 1643 c-15 -14 -6 -33 23 -48 37 -19 90 -20 90 -1 0 16 -21 26 -55 26 -12 0 -25 7 -29 15 -6 16 -18 19 -29 8z"/>
 <path d="M730 1585 c0 -33 4 -45 15 -45 11 0 15 12 15 45 0 33 -4 45 -15 45 -11 0 -15 -12 -15 -45z"/>
 <path d="M1036 1494 c-10 -25 -7 -34 9 -34 8 0 15 4 15 9 0 5 3 16 6 25 4 10 1 16 -9 16 -8 0 -18 -7 -21 -16z"/>
 <path d="M106 1398 c-17 -23 -20 -101 -7 -148 5 -19 13 -25 36 -25 29 0 30 1 33 55 6 112 -25 171 -62 118z"/>
 <path d="M985 1361 c-4 -28 -4 -55 0 -61 4 -6 76 -10 200 -10 l194 0 3 -32 c3 -29 6 -33 33 -33 29 0 30 1 30 50 l0 50 -207 3 -207 2 -3 38 c-2 25 -8 38 -19 40 -13 2 -18 -8 -24 -47z"/>
 <path d="M1250 1355 c0 -9 9 -15 25 -15 16 0 25 6 25 15 0 9 -9 15 -25 15 -16 0 -25 -6 -25 -15z"/>
 </g>
<g id="layer3" fill="#6a8693" stroke="none">
 <path d="M1150 2025 c0 -33 4 -45 15 -45 11 0 15 12 15 45 0 33 -4 45 -15 45 -11 0 -15 -12 -15 -45z"/>
 <path d="M870 2035 c0 -8 5 -15 10 -15 6 0 10 7 10 15 0 8 -4 15 -10 15 -5 0 -10 -7 -10 -15z"/>
 <path d="M950 2025 c0 -8 5 -15 10 -15 6 0 10 7 10 15 0 8 -4 15 -10 15 -5 0 -10 -7 -10 -15z"/>
 <path d="M990 2015 c0 -8 9 -15 20 -15 24 0 27 15 4 24 -22 9 -24 8 -24 -9z"/>
 <path d="M1282 2009 c2 -7 10 -15 17 -17 8 -3 12 1 9 9 -2 7 -10 15 -17 17 -8 3 -12 -1 -9 -9z"/>
 <path d="M640 1925 c0 -8 5 -15 10 -15 6 0 10 7 10 15 0 8 -4 15 -10 15 -5 0 -10 -7 -10 -15z"/>
 <path d="M460 1880 c-8 -5 -12 -12 -8 -15 9 -9 48 4 48 16 0 12 -21 11 -40 -1z"/>
 <path d="M1410 1860 c0 -20 5 -30 15 -30 8 0 15 6 15 13 1 6 10 1 21 -12 30 -37 35 -16 5 24 -34 44 -56 46 -56 5z"/>
 <path d="M1100 1765 c0 -87 3 -105 15 -105 12 0 15 18 15 105 0 87 -3 105 -15 105 -12 0 -15 -18 -15 -105z"/>
 <path d="M810 1785 c0 -24 5 -35 15 -35 10 0 15 11 15 35 0 24 -5 35 -15 35 -10 0 -15 -11 -15 -35z"/>
 <path d="M1020 1650 c0 -29 4 -40 15 -40 11 0 15 11 15 40 0 29 -4 40 -15 40 -11 0 -15 -11 -15 -40z"/>
 <path d="M225 1630 c-9 -18 -14 -34 -11 -37 2 -3 12 9 21 27 9 18 14 34 11 37 -2 3 -12 -9 -21 -27z"/>
 <path d="M795 1610 c-9 -15 4 -30 26 -30 23 0 26 25 3 34 -21 8 -22 8 -29 -4z"/>
 <path d="M1260 1550 c0 -20 5 -30 15 -30 10 0 15 10 15 30 0 20 -5 30 -15 30 -10 0 -15 -10 -15 -30z"/>
 <path d="M1330 1545 c0 -24 5 -35 15 -35 10 0 15 11 15 35 0 24 -5 35 -15 35 -10 0 -15 -11 -15 -35z"/>
 <path d="M1036 1468 c-10 -40 -7 -68 9 -68 8 0 15 6 15 14 0 7 3 28 6 45 5 24 3 31 -9 31 -8 0 -17 -10 -21 -22z"/>
 <path d="M147 1434 c-14 -14 -7 -35 11 -32 9 2 17 10 17 17 0 16 -18 25 -28 15z"/>
 <path d="M1198 1373 c-51 -3 -68 -8 -68 -18 0 -11 13 -15 53 -15 66 0 97 9 97 26 0 8 -3 13 -7 12 -5 -1 -38 -3 -75 -5z"/>
 <path d="M990 1295 c0 -13 29 -15 200 -15 171 0 200 2 200 15 0 13 -29 15 -200 15 -171 0 -200 -2 -200 -15z"/>
 <path d="M104 1226 c-8 -20 32 -171 59 -226 21 -43 50 -61 68 -43 5 5 -2 39 -16 80 -13 39 -28 96 -34 127 -6 32 -13 61 -16 67 -9 14 -55 11 -61 -5z"/>
 <path d="M1385 1228 c-2 -7 -9 -37 -15 -67 -5 -29 -24 -86 -40 -124 -32 -77 -29 -99 13 -80 35 16 117 231 103 269 -7 17 -55 19 -61 2z"/>
 </g>
<g id="layer4" fill="#284d5b" stroke="none">
 <path d="M1180 2072 c0 -9 44 -32 60 -32 19 0 10 17 -15 28 -31 14 -45 15 -45 4z"/>
 <path d="M807 2053 c-14 -13 -6 -23 18 -23 16 0 25 6 25 15 0 15 -31 21 -43 8z"/>
 <path d="M910 2035 c0 -8 5 -15 10 -15 6 0 10 7 10 15 0 8 -4 15 -10 15 -5 0 -10 -7 -10 -15z"/>
 <path d="M1014 2005 c3 -9 6 -44 6 -77 0 -43 3 -59 13 -55 8 2 12 26 12 73 0 60 -3 69 -19 72 -14 3 -17 0 -12 -13z"/>
 <path d="M1238 1992 c-61 -2 -78 -6 -78 -18 0 -12 15 -14 88 -12 67 2 87 6 87 17 0 17 -1 18 -97 13z"/>
 <path d="M802 1933 c4 -81 28 -85 28 -4 0 48 -3 61 -15 61 -13 0 -15 -11 -13 -57z"/>
 <path d="M425 1923 c-66 -17 -193 -146 -249 -253 -46 -86 -47 -110 -6 -110 24 0 35 7 48 31 51 92 103 163 152 205 52 44 160 104 188 104 6 0 12 7 12 15 0 12 -13 15 -62 14 -35 -1 -72 -4 -83 -6z"/>
 <path d="M734 1768 c1 -90 5 -169 9 -176 20 -31 47 -6 47 43 0 16 5 22 18 21 13 -1 17 7 17 34 0 24 -5 35 -15 35 -12 0 -16 20 -20 100 -5 99 -5 100 -31 103 l-27 3 2 -163z"/>
 <path d="M1110 1875 c0 -8 5 -15 10 -15 6 0 10 7 10 15 0 8 -4 15 -10 15 -5 0 -10 -7 -10 -15z"/>
 <path d="M1290 1875 c0 -8 5 -15 10 -15 6 0 10 7 10 15 0 8 -4 15 -10 15 -5 0 -10 -7 -10 -15z"/>
 <path d="M1320 1760 l0 -90 -105 0 c-87 0 -105 -3 -105 -15 0 -12 19 -15 108 -15 71 0 112 4 120 12 8 8 12 46 12 105 0 76 -3 93 -15 93 -12 0 -15 -17 -15 -90z"/>
 <path d="M820 1825 c0 -13 18 -15 116 -15 88 0 115 3 112 13 -3 8 -38 13 -116 15 -95 2 -112 0 -112 -13z"/>
 <path d="M1505 1773 c4 -10 10 -30 13 -45 4 -28 16 -36 27 -19 3 5 -4 26 -16 45 -22 37 -37 49 -24 19z"/>
 <path d="M1412 1718 c6 -18 28 -21 28 -4 0 9 -7 16 -16 16 -9 0 -14 -5 -12 -12z"/>
 <path d="M998 1623 c-61 -7 -45 -43 19 -43 23 0 25 -2 19 -35 -6 -28 -4 -35 8 -35 9 0 18 11 22 25 8 34 -4 95 -19 93 -7 -1 -29 -3 -49 -5z"/>
 <path d="M1260 1585 c0 -8 5 -15 10 -15 6 0 10 7 10 15 0 8 -4 15 -10 15 -5 0 -10 -7 -10 -15z"/>
 <path d="M1340 1585 c0 -12 13 -15 55 -15 42 0 55 3 55 15 0 12 -13 15 -55 15 -42 0 -55 -3 -55 -15z"/>
 <path d="M1460 1541 c0 -12 6 -21 15 -21 8 0 15 4 15 9 0 5 -7 14 -15 21 -13 10 -15 9 -15 -9z"/>
 <path d="M1480 1450 c0 -5 7 -10 15 -10 8 0 15 5 15 10 0 6 -7 10 -15 10 -8 0 -15 -4 -15 -10z"/>
 <path d="M1274 1416 c-7 -19 3 -36 22 -36 10 0 14 8 12 22 -4 26 -26 36 -34 14z"/>
 <path d="M1340 1365 c0 -12 16 -15 80 -15 64 0 80 3 80 15 0 12 -16 15 -80 15 -64 0 -80 -3 -80 -15z"/>
 </g>
<g id="layer5" fill="#aebcc4" stroke="none">
 <path d="M463 1759 c-38 -24 -40 -31 -13 -44 11 -6 64 -40 117 -76 181 -122 186 -123 181 -37 l-3 53 -90 45 c-50 25 -101 53 -115 63 -31 22 -38 21 -77 -4z"/>
 <path d="M260 1683 c-39 -61 -37 -87 9 -91 29 -3 41 3 87 49 30 30 54 56 54 60 0 4 -17 10 -37 14 -21 3 -48 9 -60 12 -18 4 -28 -4 -53 -44z"/>
 <path d="M825 1709 c-15 -23 14 -30 111 -27 80 2 99 6 99 18 0 12 -19 16 -102 18 -67 2 -104 -1 -108 -9z"/>
 <path d="M810 1620 c0 -5 7 -10 15 -10 8 0 15 5 15 10 0 6 -7 10 -15 10 -8 0 -15 -4 -15 -10z"/>
 <path d="M780 1526 c0 -18 18 -24 115 -42 85 -15 99 -11 93 27 -3 23 -6 24 -105 27 -84 2 -103 0 -103 -12z"/>
 <path d="M1053 1465 c-11 -29 12 -36 118 -33 96 3 104 4 104 23 0 19 -8 20 -108 23 -91 2 -108 0 -114 -13z"/>
 <path d="M1344 1465 c-11 -28 10 -36 82 -33 61 3 69 5 69 23 0 18 -8 20 -73 23 -59 2 -73 0 -78 -13z"/>
 <path d="M150 1250 c0 -5 7 -10 15 -10 8 0 15 5 15 10 0 6 -7 10 -15 10 -8 0 -15 -4 -15 -10z"/>
 </g>
<g id="layer6" fill="#97acb6" stroke="none">
 <path d="M1164 2066 c-3 -8 -4 -31 -2 -52 l3 -39 73 -3 c58 -2 72 0 72 12 0 16 -46 54 -97 80 -39 20 -42 20 -49 2z"/>
 <path d="M812 2037 c-7 -8 -8 -38 -4 -82 l7 -70 99 -8 c69 -5 103 -4 112 4 19 16 19 113 0 129 -13 10 -146 39 -187 40 -9 0 -21 -6 -27 -13z"/>
 <path d="M628 1930 c-116 -20 -224 -77 -303 -159 -45 -47 -41 -57 25 -72 40 -9 46 -7 97 28 l55 37 31 -19 c71 -42 181 -95 199 -95 17 0 18 9 16 143 l-3 142 -35 2 c-19 0 -56 -3 -82 -7z"/>
 <path d="M1114 1867 c-2 -7 -3 -58 -2 -113 l3 -99 100 0 100 0 0 110 0 110 -98 3 c-75 2 -99 0 -103 -11z"/>
 <path d="M1422 1793 l3 -78 48 -3 c61 -4 68 12 32 75 -64 112 -87 113 -83 6z"/>
 <path d="M824 1806 c-3 -7 -4 -33 -2 -57 l3 -44 104 0 105 0 8 32 c5 18 4 42 -2 57 -9 26 -11 26 -110 26 -77 0 -102 -3 -106 -14z"/>
 <path d="M810 1660 c0 -20 5 -30 15 -30 10 0 15 10 15 30 0 20 -5 30 -15 30 -10 0 -15 -10 -15 -30z"/>
 <path d="M230 1630 c-12 -23 -19 -44 -16 -47 2 -3 14 14 26 37 12 23 19 44 16 47 -2 3 -14 -14 -26 -37z"/>
 <path d="M1054 1577 c-3 -8 -4 -36 -2 -63 l3 -49 110 0 110 0 0 60 0 60 -108 3 c-85 2 -108 0 -113 -11z"/>
 <path d="M1344 1567 c-3 -8 -4 -34 -2 -58 l3 -44 70 0 c81 0 88 9 58 72 -17 36 -20 38 -71 41 -38 2 -54 -1 -58 -11z"/>
 <path d="M970 1415 c0 -92 3 -115 14 -115 10 0 16 18 21 59 9 77 -3 171 -21 171 -11 0 -14 -24 -14 -115z"/>
 <path d="M1260 1405 c0 -16 6 -25 15 -25 9 0 15 9 15 25 0 16 -6 25 -15 25 -9 0 -15 -9 -15 -25z"/>
 <path d="M1330 1395 c0 -16 6 -25 15 -25 9 0 15 9 15 25 0 16 -6 25 -15 25 -9 0 -15 -9 -15 -25z"/>
 <path d="M145 1380 c-8 -14 3 -30 21 -30 8 0 14 9 14 20 0 21 -24 28 -35 10z"/>
 <path d="M1052 1368 c7 -20 48 -23 48 -4 0 11 -9 16 -26 16 -16 0 -24 -5 -22 -12z"/>
 <path d="M150 1230 c0 -5 7 -10 15 -10 8 0 15 5 15 10 0 6 -7 10 -15 10 -8 0 -15 -4 -15 -10z"/>
 <path d="M1370 1205 c0 -8 7 -15 15 -15 8 0 15 7 15 15 0 8 -7 15 -15 15 -8 0 -15 -7 -15 -15z"/>
 <path d="M1285 940 c-20 -40 -34 -74 -31 -77 2 -3 21 27 41 67 20 40 34 74 31 77 -2 3 -21 -27 -41 -67z"/>
 <path d="M720 235 c0 -3 9 -24 21 -46 20 -41 47 -50 57 -19 4 13 3 13 -11 2 -14 -12 -19 -8 -37 27 -18 37 -30 50 -30 36z"/>
 </g>
<g id="layer7" fill="#0c3442" stroke="none">
 <path d="M1142 2028 l3 -73 104 -3 c128 -3 143 6 86 54 -50 42 -146 94 -174 94 -21 0 -22 -4 -19 -72z m76 23 c20 -11 52 -31 71 -45 l35 -26 -77 0 -77 0 0 45 c0 25 2 45 5 45 3 0 22 -9 43 -19z"/>
 <path d="M797 2063 c-4 -3 -7 -20 -7 -37 l0 -31 -73 3 c-42 2 -101 -3 -140 -12 -74 -17 -147 -50 -147 -67 0 -6 61 -8 179 -5 l180 5 3 -27 3 -27 130 0 130 0 3 77 c3 92 5 90 -123 113 -96 16 -128 18 -138 8z m178 -47 l50 -11 3 -57 3 -57 -105 2 -106 2 0 72 0 72 53 -6 c28 -4 75 -11 102 -17z"/>
 <path d="M1402 1808 l3 -113 73 -3 c57 -2 74 0 78 12 13 33 -108 216 -142 216 -12 0 -14 -19 -12 -112z m97 -28 l30 -55 -47 0 -47 0 -1 73 c-1 70 0 72 17 55 9 -10 31 -43 48 -73z"/>
 <path d="M1084 1887 c-2 -7 -3 -67 -2 -133 l3 -119 135 0 135 0 3 115 c4 149 3 149 -156 150 -84 0 -114 -3 -118 -13z m235 -31 c7 -5 11 -42 11 -102 l0 -94 -105 0 -105 0 0 103 0 102 94 -1 c51 -1 99 -4 105 -8z"/>
 <path d="M794 1837 c-3 -8 -4 -39 -2 -68 2 -40 7 -54 18 -54 11 0 16 14 18 53 l3 52 99 0 c89 0 100 -2 98 -17 -1 -10 0 -53 0 -95 2 -63 5 -78 17 -78 13 0 15 16 13 108 l-3 107 -128 3 c-102 2 -128 0 -133 -11z"/>
 <path d="M1042 1598 c-17 -17 -15 -58 3 -58 8 0 15 8 15 18 0 15 12 17 102 17 l103 0 5 -80 c4 -62 8 -80 20 -80 12 0 15 17 15 95 l0 95 -125 3 c-89 2 -129 -1 -138 -10z"/>
 <path d="M1325 1597 c-3 -7 -4 -67 -3 -133 l3 -119 95 0 95 0 -1 75 c-1 43 -10 98 -20 130 l-19 55 -73 3 c-54 2 -74 -1 -77 -11z m133 -44 c19 -49 32 -107 32 -145 l0 -38 -70 0 -70 0 0 105 0 105 49 0 c44 0 50 -3 59 -27z"/>
 <path d="M2757 1594 c-4 -4 -7 -146 -7 -315 l0 -308 -57 -3 -58 -3 0 -70 0 -70 48 -3 47 -3 0 -52 c0 -63 30 -121 80 -155 30 -20 44 -22 120 -20 l85 3 0 60 0 60 -35 3 c-63 5 -78 11 -84 38 -13 50 0 63 62 66 l57 3 0 70 0 70 -52 3 -53 3 -2 312 -3 312 -70 3 c-39 1 -74 0 -78 -4z"/>
 <path d="M3085 1588 c-3 -7 -4 -182 -3 -388 l3 -375 80 0 80 0 0 385 0 385 -78 3 c-56 2 -79 -1 -82 -10z"/>
 <path d="M3084 747 c-3 -8 -4 -45 -2 -83 l3 -69 80 0 80 0 0 80 0 80 -78 3 c-59 2 -79 0 -83 -11z"/>
 </g>
<g id="layer8" fill="#7895a4" stroke="none">
 <path d="M528 1913 c-10 -2 -18 -11 -18 -20 0 -10 6 -13 16 -9 9 3 20 6 25 6 5 0 9 7 9 15 0 15 -2 16 -32 8z"/>
 <path d="M1302 1758 c2 -84 6 -103 18 -103 12 0 15 18 15 100 0 88 -2 100 -18 103 -16 3 -17 -5 -15 -100z"/>
 <path d="M830 1815 c0 -12 17 -15 106 -15 80 0 105 3 102 13 -3 8 -36 13 -106 15 -86 2 -102 0 -102 -13z"/>
 <path d="M810 1720 c0 -20 5 -30 15 -30 10 0 15 10 15 30 0 20 -5 30 -15 30 -10 0 -15 -10 -15 -30z"/>
 <path d="M1745 1588 c-3 -7 -4 -182 -3 -388 l3 -375 65 0 c64 0 65 1 68 28 l3 27 46 -32 c42 -31 50 -33 128 -33 76 0 87 2 126 30 23 17 52 48 63 70 20 38 21 55 21 360 l0 320 -75 0 -75 0 -6 -305 c-3 -168 -6 -306 -7 -307 -54 -56 -144 -41 -184 30 -9 15 -14 108 -18 302 l-5 280 -73 3 c-52 2 -74 -1 -77 -10z"/>
 <path d="M2375 1588 c-3 -7 -4 -182 -3 -388 l3 -375 75 0 75 0 0 385 0 385 -73 3 c-52 2 -74 -1 -77 -10z"/>
 <path d="M1350 1576 c0 -13 12 -16 56 -16 73 0 70 24 -4 28 -42 2 -52 0 -52 -12z"/>
 <path d="M1260 1475 c0 -33 4 -45 15 -45 11 0 15 12 15 45 0 33 -4 45 -15 45 -11 0 -15 -12 -15 -45z"/>
 <path d="M1330 1465 c0 -33 4 -45 15 -45 11 0 15 12 15 45 0 33 -4 45 -15 45 -11 0 -15 -12 -15 -45z"/>
 <path d="M1035 1404 c-3 -26 -2 -51 3 -56 5 -5 54 -6 115 -2 85 6 107 10 107 22 0 12 -16 14 -98 10 l-97 -5 3 39 c3 29 0 38 -11 38 -10 0 -17 -15 -22 -46z"/>
 <path d="M145 1399 c-4 -6 -4 -13 -1 -16 8 -8 36 5 36 17 0 13 -27 13 -35 -1z"/>
 <path d="M150 1210 c0 -5 7 -10 15 -10 8 0 15 5 15 10 0 6 -7 10 -15 10 -8 0 -15 -4 -15 -10z"/>
 <path d="M160 1150 c0 -5 7 -10 15 -10 8 0 15 5 15 10 0 6 -7 10 -15 10 -8 0 -15 -4 -15 -10z"/>
 <path d="M220 982 c0 -7 -7 -12 -15 -12 -45 0 -2 -76 178 -314 169 -225 293 -409 344 -509 19 -38 39 -67 46 -64 7 2 35 47 63 99 66 122 104 178 288 423 131 175 236 333 236 357 0 5 -13 8 -29 8 -27 0 -34 -8 -66 -67 -19 -38 -92 -144 -161 -238 -175 -238 -240 -334 -288 -429 l-42 -83 -37 71 c-47 92 -159 259 -314 469 -68 93 -137 194 -154 225 -33 62 -49 83 -49 64z"/>
 <path d="M2374 747 c-3 -8 -4 -45 -2 -83 l3 -69 75 0 75 0 0 80 0 80 -73 3 c-55 2 -74 -1 -78 -11z"/>
 </g>
<g id="layer9" fill="#ced4d8" stroke="none">
 <path d="M383 1688 c-32 -28 -62 -58 -68 -64 -5 -7 -30 -14 -55 -16 l-45 -3 -22 -63 c-60 -168 -48 -373 32 -563 36 -85 56 -116 204 -314 127 -170 247 -352 298 -451 21 -41 43 -74 48 -74 6 0 30 39 54 87 57 116 86 160 268 407 206 280 290 449 296 598 l2 63 -202 3 -203 2 0 90 c0 49 -4 92 -10 95 -5 3 -46 12 -90 20 -111 19 -223 76 -387 197 -29 21 -55 38 -57 38 -3 0 -32 -23 -63 -52z m43 -443 c0 -111 3 -124 24 -153 43 -58 49 -45 47 103 -1 74 2 137 5 141 4 3 60 -8 125 -24 151 -39 273 -60 396 -69 53 -3 97 -8 97 -10 0 -2 -5 -37 -11 -76 -18 -120 -48 -228 -90 -315 l-39 -84 -37 6 c-124 18 -224 28 -229 23 -3 -3 17 -38 44 -79 27 -40 59 -92 70 -114 l21 -42 -39 -98 c-22 -55 -45 -119 -51 -142 l-10 -44 -51 88 c-63 110 -123 199 -257 383 -57 80 -119 169 -137 199 -67 110 -106 287 -93 413 13 114 12 114 121 60 l93 -45 1 -121z"/>
 <path d="M824 1686 c-3 -8 -4 -29 -2 -47 3 -30 7 -34 38 -39 19 -3 67 -3 105 0 l70 5 0 45 0 45 -103 3 c-82 2 -103 0 -108 -12z"/>
 <path d="M1054 1436 c-3 -8 -4 -27 -2 -43 l3 -28 110 0 110 0 0 40 0 40 -108 3 c-86 2 -108 0 -113 -12z"/>
 <path d="M1344 1436 c-3 -8 -4 -27 -2 -43 l3 -28 80 0 c87 0 95 6 76 58 -10 26 -14 27 -81 27 -52 0 -72 -4 -76 -14z"/>
 </g>
<g id="layer10" fill="#f4f4f5" stroke="none">
 <path d="M770 1580 c0 -5 7 -10 15 -10 8 0 15 5 15 10 0 6 -7 10 -15 10 -8 0 -15 -4 -15 -10z"/>
 <path d="M205 1424 c-25 -80 -17 -239 19 -349 31 -97 61 -149 198 -337 129 -176 222 -317 278 -421 23 -43 47 -76 53 -74 6 2 20 39 32 83 12 43 36 112 53 152 l32 73 -25 47 c-13 26 -42 74 -64 107 -22 32 -39 60 -38 62 2 1 54 -4 116 -12 92 -12 117 -13 129 -3 25 21 89 167 110 253 25 96 45 231 38 243 -3 5 -52 12 -108 15 -127 8 -235 27 -401 68 -96 25 -130 30 -139 21 -8 -8 -11 -55 -11 -137 1 -117 0 -125 -15 -104 -11 16 -17 56 -20 145 l-5 124 -102 50 c-56 27 -104 50 -107 50 -3 0 -13 -25 -23 -56z"/>
 </g>

</svg>