<!DOCTYPE svg PUBLIC "-//W3C//DTD SVG 20010904//EN" "http://www.w3.org/TR/2001/REC-SVG-20010904/DTD/svg10.dtd">
<svg version="1.0" xmlns="http://www.w3.org/2000/svg" width="987px" height="293px" viewBox="0 0 9870 2930" preserveAspectRatio="xMidYMid meet">
<g id="layer1" fill="#382021" stroke="none">
 <path d="M835 2121 c-7 -12 12 -24 25 -16 11 7 4 25 -10 25 -5 0 -11 -4 -15 -9z"/>
 <path d="M895 2110 c-8 -12 36 -30 75 -30 39 0 47 18 15 30 -34 13 -82 13 -90 0z"/>
 <path d="M1016 2084 c-3 -9 -6 -56 -6 -105 l0 -89 -44 6 c-27 4 -46 2 -50 -5 -9 -14 22 -26 111 -42 76 -13 115 -7 95 13 -8 8 -12 47 -12 105 0 83 2 93 18 90 31 -4 19 18 -18 30 -49 17 -87 16 -94 -3z"/>
 <path d="M735 1921 c-7 -12 12 -24 25 -16 11 7 4 25 -10 25 -5 0 -11 -4 -15 -9z"/>
 <path d="M795 1910 c-8 -12 20 -24 35 -15 6 3 8 11 5 16 -8 12 -32 12 -40 -1z"/>
 <path d="M855 1901 c-7 -12 12 -24 25 -16 11 7 4 25 -10 25 -5 0 -11 -4 -15 -9z"/>
 <path d="M755 1231 c-7 -12 12 -24 25 -16 11 7 4 25 -10 25 -5 0 -11 -4 -15 -9z"/>
 <path d="M815 1220 c-8 -13 20 -24 41 -16 20 8 9 26 -16 26 -10 0 -22 -5 -25 -10z"/>
 <path d="M905 1211 c-7 -12 12 -24 25 -16 11 7 4 25 -10 25 -5 0 -11 -4 -15 -9z"/>
 <path d="M955 1201 c-7 -12 12 -24 25 -16 11 7 4 25 -10 25 -5 0 -11 -4 -15 -9z"/>
 <path d="M1026 1200 c-17 -6 -18 -17 -17 -109 l2 -103 -48 8 c-67 11 -107 11 -111 -1 -2 -5 18 -14 45 -18 26 -4 68 -13 93 -19 61 -15 143 -26 152 -21 12 6 -3 33 -18 33 -11 0 -14 22 -14 104 0 71 -4 107 -12 113 -19 15 -51 21 -72 13z"/>
 <path d="M775 1011 c-7 -12 12 -24 25 -16 11 7 4 25 -10 25 -5 0 -11 -4 -15 -9z"/>
 </g>
<g id="layer2" fill="#464545" stroke="none">
 <path d="M380 2118 c-47 -4 -130 -16 -185 -24 -55 -9 -118 -19 -140 -22 -38 -4 -55 -15 -55 -37 0 -19 17 -36 41 -40 13 -3 47 -9 74 -14 110 -21 374 -54 389 -48 13 5 16 22 16 79 0 40 -3 83 -6 96 -7 24 -4 24 -134 10z"/>
 <path d="M410 1223 c-25 -2 -97 -12 -160 -23 -63 -10 -143 -22 -177 -25 -49 -5 -64 -11 -68 -26 -14 -44 6 -53 157 -77 217 -33 325 -45 343 -39 11 5 15 22 15 76 0 88 -12 122 -42 119 -13 -1 -43 -3 -68 -5z"/>
 </g>
<g id="layer3" fill="#301111" stroke="none">
 <path d="M1090 2080 c-16 -10 -27 -136 -16 -194 6 -31 12 -36 54 -50 86 -28 315 -67 325 -57 7 7 -1 16 -26 26 -20 8 -41 15 -47 15 -6 0 -10 35 -10 90 0 105 -1 104 100 69 65 -22 111 -19 77 5 -9 8 -45 19 -80 26 -34 6 -66 15 -72 20 -10 8 -176 44 -250 54 -22 3 -47 1 -55 -4z"/>
 <path d="M1586 1961 c-8 -12 13 -28 45 -36 39 -10 45 11 10 30 -34 17 -47 19 -55 6z"/>
 <path d="M1685 1921 c-3 -6 2 -16 11 -23 10 -7 37 -32 61 -56 39 -38 63 -47 63 -22 0 19 -100 110 -121 110 -4 0 -10 -4 -14 -9z"/>
 <path d="M1525 1761 c-6 -11 33 -36 42 -27 4 3 12 1 20 -6 10 -8 17 -8 24 -1 7 7 1 16 -22 27 -37 18 -55 20 -64 7z"/>
 <path d="M1635 1721 c-7 -12 12 -24 25 -16 11 7 4 25 -10 25 -5 0 -11 -4 -15 -9z"/>
 <path d="M1080 1164 c-11 -27 -13 -156 -4 -190 3 -12 20 -26 42 -34 50 -18 200 -50 234 -50 15 0 37 -4 50 -9 70 -28 140 -43 151 -32 8 8 1 15 -26 26 -20 8 -44 15 -54 15 -10 0 -36 7 -58 14 l-40 14 -3 92 c-3 92 -3 93 20 86 13 -4 46 -10 73 -13 48 -5 49 -4 28 11 -24 18 -121 45 -272 76 -121 26 -129 25 -141 -6z"/>
 <path d="M1545 1071 c-8 -13 33 -34 52 -27 12 5 13 9 3 21 -14 17 -46 20 -55 6z"/>
 <path d="M1640 1030 c0 -6 20 -19 44 -29 25 -11 60 -39 81 -65 37 -43 55 -50 55 -21 0 33 -116 125 -157 125 -13 0 -23 -5 -23 -10z"/>
 <path d="M1586 841 c-8 -13 53 -46 65 -34 4 4 5 13 1 20 -10 16 -58 27 -66 14z"/>
 </g>
<g id="layer4" fill="#2f2f2f" stroke="none">
 <path d="M595 2150 c-33 -5 -73 -13 -88 -19 -16 -6 -32 -9 -37 -6 -4 3 -13 -2 -21 -11 -10 -13 -9 -16 9 -21 20 -5 22 -12 22 -78 l0 -73 33 -11 c17 -5 68 -15 112 -20 44 -6 116 -15 160 -21 44 -5 109 -14 145 -20 115 -17 126 -3 118 145 -4 81 -12 95 -59 95 -14 0 -83 11 -153 25 -135 26 -146 27 -241 15z"/>
 <path d="M568 1245 c-37 -8 -72 -17 -78 -20 -13 -8 -13 -135 -1 -169 8 -19 21 -27 63 -35 45 -9 259 -38 435 -58 l52 -6 6 37 c4 20 5 69 3 111 -4 92 -11 98 -127 114 -47 7 -120 19 -162 27 -89 16 -102 16 -191 -1z"/>
 </g>
<g id="layer5" fill="#d20000" stroke="none">
 <path d="M0 2577 c0 -275 3 -356 13 -360 48 -18 766 -111 922 -119 64 -4 69 14 7 27 l-47 10 -3 314 c-2 290 -1 315 15 327 12 8 15 16 8 22 -19 19 -526 92 -637 92 -37 0 -100 7 -140 15 -40 9 -88 18 -105 21 l-33 5 0 -354z"/>
 <path d="M1015 2101 c-7 -12 12 -24 25 -16 11 7 4 25 -10 25 -5 0 -11 -4 -15 -9z"/>
 <path d="M1065 2090 c-8 -12 20 -24 35 -15 6 3 8 11 5 16 -8 12 -32 12 -40 -1z"/>
 <path d="M1125 2080 c-8 -12 20 -24 35 -15 6 3 8 11 5 16 -8 12 -32 12 -40 -1z"/>
 <path d="M1185 2071 c-7 -12 -2 -14 59 -30 39 -10 61 -7 51 9 -3 4 -21 11 -41 14 -19 4 -41 9 -49 12 -7 3 -16 1 -20 -5z"/>
 <path d="M1325 2040 c-7 -11 -3 -12 60 -30 132 -37 149 -40 158 -31 11 11 -6 22 -52 32 -44 9 -120 28 -143 35 -9 3 -19 0 -23 -6z"/>
 <path d="M5 2027 c-3 -6 -4 -170 -3 -362 3 -302 5 -350 18 -352 8 0 73 -11 145 -22 254 -41 545 -77 700 -87 33 -2 67 -5 75 -6 32 -6 19 17 -14 25 l-36 9 0 317 c0 228 3 320 12 329 24 24 -18 31 -617 113 -126 17 -237 35 -247 40 -22 12 -28 11 -33 -4z"/>
 <path d="M1796 2033 c-3 -3 -6 -37 -6 -75 0 -72 -5 -78 -44 -52 -37 23 -42 -1 -6 -27 16 -13 32 -31 36 -41 3 -10 14 -18 25 -18 18 0 19 8 19 104 0 96 -7 126 -24 109z"/>
 <path d="M1625 1950 c-6 -9 33 -30 56 -30 18 0 8 17 -16 28 -31 14 -32 15 -40 2z"/>
 <path d="M926 1881 c-8 -12 0 -17 46 -25 33 -6 61 6 41 17 -19 11 -82 17 -87 8z"/>
 <path d="M1035 1860 c-8 -13 20 -24 41 -16 20 8 9 26 -16 26 -10 0 -22 -5 -25 -10z"/>
 <path d="M1115 1851 c-7 -12 12 -24 25 -16 11 7 4 25 -10 25 -5 0 -11 -4 -15 -9z"/>
 <path d="M1165 1841 c-7 -13 1 -16 68 -31 48 -10 72 -6 62 10 -2 4 -26 11 -51 15 -26 3 -52 9 -59 11 -7 3 -16 1 -20 -5z"/>
 <path d="M1315 1810 c-7 -11 -7 -11 80 -35 33 -9 88 -26 123 -37 44 -14 67 -17 74 -10 7 7 4 13 -10 21 -23 12 -113 38 -182 52 -25 5 -52 12 -62 15 -9 2 -19 0 -23 -6z"/>
 <path d="M1630 1711 c0 -12 29 -23 41 -15 5 3 7 10 4 15 -8 12 -45 12 -45 0z"/>
 <path d="M1005 1200 c-8 -13 20 -24 41 -16 20 8 9 26 -16 26 -10 0 -22 -5 -25 -10z"/>
 <path d="M1075 1190 c-3 -5 0 -12 7 -15 32 -11 103 -23 110 -19 15 10 -2 22 -39 28 -21 4 -45 9 -55 12 -9 3 -19 0 -23 -6z"/>
 <path d="M1225 1160 c-7 -12 -7 -12 115 -40 52 -12 121 -31 152 -42 54 -19 96 -19 84 0 -6 10 -86 33 -229 67 -126 29 -114 28 -122 15z"/>
 <path d="M5 1127 c-3 -6 -4 -169 -3 -362 l3 -349 100 -17 c55 -10 170 -27 255 -39 85 -11 205 -27 265 -36 61 -8 144 -16 185 -17 l75 -2 3 329 2 328 64 -7 c42 -4 66 -3 71 4 8 14 -2 18 -105 36 -171 31 -199 35 -425 65 -316 42 -436 60 -463 71 -16 6 -24 5 -27 -4z"/>
 <path d="M1795 1128 c-2 -7 -6 -40 -7 -73 -3 -49 -6 -60 -20 -60 -10 0 -18 -5 -19 -10 -2 -19 36 -65 54 -65 15 0 17 12 17 104 0 60 -4 108 -10 111 -6 3 -12 0 -15 -7z"/>
 <path d="M1595 1061 c-7 -12 12 -24 25 -16 11 7 4 25 -10 25 -5 0 -11 -4 -15 -9z"/>
 <path d="M1645 1041 c-7 -12 12 -24 25 -16 11 7 4 25 -10 25 -5 0 -11 -4 -15 -9z"/>
 <path d="M1045 961 c-7 -12 12 -24 25 -16 11 7 4 25 -10 25 -5 0 -11 -4 -15 -9z"/>
 <path d="M1095 951 c-7 -12 12 -24 25 -16 11 7 4 25 -10 25 -5 0 -11 -4 -15 -9z"/>
 <path d="M1145 940 c-8 -12 20 -24 35 -15 6 3 8 11 5 16 -8 12 -32 12 -40 -1z"/>
 <path d="M1215 930 c-7 -12 -3 -13 84 -35 44 -11 67 -13 74 -6 12 12 8 13 -68 31 -27 6 -57 13 -67 16 -9 3 -19 0 -23 -6z"/>
 <path d="M1395 890 c-3 -5 0 -12 7 -14 7 -2 34 -12 60 -21 45 -17 85 -15 74 4 -3 4 -27 14 -53 21 -27 7 -55 14 -65 16 -9 3 -19 0 -23 -6z"/>
 <path d="M1606 832 c-9 -15 12 -35 29 -28 14 5 15 9 5 21 -14 17 -26 19 -34 7z"/>
 <path d="M1676 802 c-9 -15 12 -35 29 -28 14 5 15 9 5 21 -14 17 -26 19 -34 7z"/>
 <path d="M990 285 c0 -8 7 -15 15 -15 8 0 15 7 15 15 0 8 -7 15 -15 15 -8 0 -15 -7 -15 -15z"/>
 </g>
<g id="layer6" fill="#f00002" stroke="none">
 <path d="M836 2811 c-17 -7 -18 -8 -3 -14 14 -5 17 -41 19 -336 3 -310 4 -331 22 -344 10 -8 89 -26 175 -41 390 -67 608 -134 714 -219 27 -21 29 -21 42 -4 16 22 29 311 23 524 l-3 142 -30 31 c-89 93 -373 179 -830 250 -38 6 -79 13 -90 15 -11 2 -29 0 -39 -4z"/>
 <path d="M861 1882 c-14 -26 -15 -620 -1 -656 6 -17 17 -26 32 -26 12 0 47 -5 77 -10 31 -6 92 -17 136 -25 348 -63 520 -115 636 -191 47 -31 55 -34 65 -20 13 19 24 223 24 458 0 258 5 252 -270 344 -41 14 -104 32 -140 40 -170 39 -303 66 -385 79 -49 8 -106 17 -127 21 -30 5 -38 3 -47 -14z"/>
 <path d="M45 1331 c-7 -12 12 -24 25 -16 11 7 4 25 -10 25 -5 0 -11 -4 -15 -9z"/>
 <path d="M295 1290 c-8 -12 20 -24 35 -15 6 3 8 11 5 16 -8 12 -32 12 -40 -1z"/>
 <path d="M595 1250 c-8 -12 20 -24 35 -15 6 3 8 11 5 16 -8 12 -32 12 -40 -1z"/>
 <path d="M860 975 c-5 -14 -10 -166 -10 -347 l-1 -323 28 -12 c15 -6 53 -14 83 -18 112 -13 410 -76 555 -118 100 -29 204 -80 245 -121 19 -19 40 -36 47 -36 21 0 24 57 21 394 l-3 328 -44 39 c-24 22 -53 39 -65 39 -12 0 -26 4 -31 8 -18 14 -118 50 -205 73 -156 40 -280 65 -578 114 -28 5 -33 2 -42 -20z"/>
 <path d="M740 325 c0 -8 7 -15 15 -15 8 0 15 7 15 15 0 8 -7 15 -15 15 -8 0 -15 -7 -15 -15z"/>
 </g>
<g id="layer7" fill="#010101" stroke="none">
 <path d="M2602 2635 c-92 -13 -238 -46 -297 -67 -87 -31 -145 -62 -146 -77 -3 -38 3 -80 20 -146 10 -38 29 -117 41 -175 36 -167 40 -181 56 -187 9 -3 45 6 82 20 164 65 301 95 458 104 106 5 130 3 190 -15 80 -24 122 -61 131 -114 9 -56 -13 -104 -60 -137 -53 -36 -151 -85 -197 -99 -128 -39 -287 -111 -390 -177 -238 -153 -363 -407 -315 -640 45 -216 149 -370 318 -473 71 -43 208 -99 271 -111 28 -6 85 -18 126 -26 107 -23 366 -16 510 14 173 36 310 87 310 116 0 14 -19 90 -76 303 -15 53 -31 116 -36 138 -11 49 -30 58 -79 37 -124 -53 -341 -89 -480 -81 -143 9 -209 51 -209 134 0 41 5 51 36 81 46 43 72 56 279 138 285 114 374 165 486 282 195 202 228 494 88 764 -107 206 -357 352 -674 395 -122 16 -317 16 -443 -1z"/>
 <path d="M4702 2634 c-412 -64 -677 -354 -698 -767 -15 -284 56 -502 220 -675 131 -138 289 -221 511 -267 116 -24 145 -27 270 -22 125 4 169 11 326 48 22 6 39 16 41 27 3 9 -3 55 -13 102 -29 137 -57 282 -64 324 -6 36 -8 38 -38 33 -18 -3 -66 -11 -107 -17 -111 -18 -255 -8 -305 21 -79 45 -114 80 -145 142 -58 119 -60 251 -4 365 34 69 78 113 151 148 52 26 70 29 173 32 78 3 139 -1 190 -12 61 -13 77 -14 87 -3 8 7 20 56 28 108 9 52 23 141 32 199 18 113 19 138 5 152 -19 19 -131 50 -235 63 -131 18 -310 17 -425 -1z"/>
 <path d="M5905 2631 c-191 -47 -327 -173 -385 -360 -31 -97 -28 -249 6 -349 32 -97 53 -132 128 -210 97 -102 240 -171 444 -216 64 -14 165 -28 225 -32 95 -5 107 -8 107 -24 0 -10 -12 -27 -27 -38 -102 -72 -402 -50 -600 44 -63 30 -84 28 -94 -6 -86 -294 -102 -371 -83 -389 27 -26 237 -94 379 -123 163 -33 422 -33 555 1 145 36 248 89 329 169 90 89 158 224 182 365 6 34 15 287 20 562 5 275 10 517 11 537 1 21 -1 41 -6 45 -9 9 -487 17 -533 8 -29 -5 -33 -10 -44 -60 -7 -30 -15 -55 -18 -55 -3 0 -29 16 -56 36 -141 101 -357 139 -540 95z m433 -456 c86 -37 121 -100 122 -222 0 -95 6 -91 -109 -72 -82 13 -151 42 -186 80 -36 37 -47 124 -21 164 40 60 119 81 194 50z"/>
 <path d="M8702 2634 c-164 -36 -293 -135 -362 -279 -53 -110 -63 -157 -58 -272 13 -266 164 -449 448 -546 111 -37 261 -66 382 -73 104 -6 106 -6 99 -27 -20 -53 -88 -76 -226 -77 -143 0 -293 33 -403 89 -50 26 -79 27 -86 4 -2 -10 -17 -63 -32 -118 -15 -55 -35 -126 -45 -158 -11 -31 -19 -72 -19 -91 0 -32 3 -35 73 -64 94 -40 176 -64 317 -93 95 -20 145 -24 290 -24 159 1 184 3 280 29 143 38 246 94 324 176 76 81 137 198 149 284 4 33 12 268 17 521 4 253 12 515 16 583 l7 122 -254 0 c-140 0 -264 -3 -275 -6 -24 -6 -39 -34 -49 -87 l-7 -35 -46 35 c-135 103 -355 147 -540 107z m416 -460 c43 -18 88 -58 108 -96 9 -17 14 -59 14 -118 0 -90 0 -90 -25 -90 -45 0 -178 31 -216 51 -62 31 -79 61 -79 140 l0 69 42 30 c47 34 97 39 156 14z"/>
 <path d="M7428 2613 c-10 -2 -20 -18 -23 -36 -9 -51 -1 -2334 8 -2344 11 -11 613 -11 624 0 11 11 11 2363 0 2374 -9 8 -579 15 -609 6z"/>
 <path d="M1341 2012 c-12 -22 -15 -152 -5 -188 5 -17 26 -28 107 -53 56 -18 136 -45 178 -61 41 -17 86 -30 98 -30 35 0 101 70 101 108 0 77 -120 156 -320 213 -116 33 -146 35 -159 11z"/>
 <path d="M1334 1095 c-3 -19 -4 -68 -2 -110 4 -84 15 -99 81 -109 45 -8 208 -61 248 -81 45 -24 75 -18 119 21 43 39 50 66 26 112 -40 76 -168 141 -369 186 -93 22 -95 21 -103 -19z"/>
 </g>

</svg>